<?xml version="1.0" encoding="UTF-8"?>
<svg id="Camada_2" data-name="Camada 2" xmlns="http://www.w3.org/2000/svg" viewBox="0 0 689.03 583.91">
  <defs>
    <style>
      .cls-1 {
        fill: #fff;
      }
    </style>
  </defs>
  <g id="Camada_1-2" data-name="Camada 1">
    <path class="cls-1" d="M188.9.14c.53-.11,1.11-.12,1.57-.11.54.01,1.25-.19,1.39.4.06-.02.04-.3.14-.36.31-.18,2.62.95,2.76,1.31.08.21-.23.4-.02.5l.32-.38c.52.22.68.49,1.02.96.19.27.62.84.79,1.11.12.19.13.78.15.81.89,1.06,1.78,3.03,2.16,4.48.07.25.06.52,0,.77l.37.08c-.26.42.14.84.09,1.29-.55,0-.92.18-1.03.75.21-.04.58,0,.75-.06.39-.12.41-.7.61.36.02.09-.11.22-.1.28,0,.03.4.22.42.45l-.35.35.76.17-.25.42-.24-.15c-.54.18,0,.49.19.7l-.27-.02-.19.32c.71.17,1.12,1.4.46,1.87l.34-.08c.23.27.03.43-.22.59l.55.05-.43.24c.12.41.43,1.42.35,1.8-.09.42-.33-.44-.47.07l.64.61-.3.03c.31.13.02.2.05.39.24,1.54.14,2.83.04,4.41-.12,1.81-.35,3.87-.71,5.68-.05.24.23.45-.17.8-.2.18-.54-.01-.57.51,0,.19.32.21-.14.46l.32.19.13-.93.38.08-.1.88c-.02.1-.35-.22-.37.13l.3.19-.16.18.2.26-.32.03-.23.64.36-.31c.1-.33.19.05.14.15-.09.2-.32.66-.53.45l-.09,1.09-.32-.19-.19.32.5.33-.06.37-.37-.24-.48.45.38.08.02-.27.43.48c-.67.27-.66.97-.88,1.55-.32.87-.79,2-1.25,3.01-.52,1.16-.9,2.33-1.68,3.38l.14.25-.24-.06-.12.42-.18-.18c-.28.2.1.32.05.4-.08.13-.32.21-.44.36-.22.3-.27.83-.66.7.08.45-.28,1.07-.55,1.41-.15.19-.31.02-.33.07-.06.12-.04.39-.13.57-.37.68-1.37,1.8-1.91,2.52-.16.21-.48.4-.58.56-.11.18.05.42-.02.46-.02.01-.16-.18-.39.04-.26.24-.37.58-.61.84s-1.75,1.61-1.73,1.78c.01.11.25.25.15.41l-.31-.17-.2.29-.14-.24c-.09.55-.55.52-.64.59-.48.41-.89.94-1.48,1.23.08.25.66.02.33.41l-.47-.2c-.8.69-1.62,1.39-2.45,2.03-.34.26-.96.2-.17.59.24.2-.14.63-.34.26-.38-.74-.35-.21-.57-.12-.17.07-.51.06-.61.14-.12.09.04.29-.07.39-.35.29-1.09.17-1.06.66l-.29-.25.52-.62-.38-.07-.45.73c.52.25.24.27-.05.55l-.4-.53c-.19.59-.41,1.48-1.13.91-.05.27-.37.43-.05.55l-.06.1c-.37-.27-.63.21-.76.24-.11.02-.24-.15-.3-.16-.03,0-.01.3-.12.4-.21.21-1.1.24-1.27.34-.09.05-.32.47-.54.53-.51-.24.14-.62-.04-.89.01.28-1.42.86-.68.88l-.42.24-.07.33-.25-.3s-.04.25-.15.35c-.43.36-1.22.36-1.63.48l-.03.25-.36-.36.04.38-.6.26-.14-.2c-.27.48-.95.39-1.35.55-.18.08-1.13.76-1.2.79-.02,0-.11-.22-.27-.24-.04,0-.69.09-.8.11-.14.03-.13.23-.16.23-.7.12-1.59,0-2.39.34-.21.09-.46.38-.49.39-.08.02-.96-.36-1.55-.28-.15.02-.17.27-.55.31-.59.07-1.64.12-2.23.1-.16,0-.3-.04-.44-.13l-.02.27c-.74-.28-1.66.11-2.48-.19l-.02.25c-.77-.26-1.82-.1-2.56-.3-.16-.04-.26-.25-.28-.24-.04.02-.59.64-.7.23l.12-.22-.07-.11c-.02.06-.08.15-.14.15-.12,0-1.17-.14-1.27-.17-.41-.11.03-.48-.33-.45-.02,0-.07.18-.2.15-.2-.04-.57-.36-.71-.34-.11.01-.22.19-.3.15-.47-.26-.27-.98-1.04-1.05l.26-.21-.08-.33c.38-.32,1.7.49,1.15-.46.49-.27,1.16-.41,1.63-.68.2-.11,1.01-.86,1.09-.9.04-.02.72.04.91-.12l-.15-.23c.24-.28.56-.21.81-.4.19-.14.26-.36.35-.42.11-.07.8-.15.93-.01l-.15-.23c.16-.33.51-.47.78-.69.51-.42.95-.71,1.53-1.1.17-.11.03-.47.34-.22l-.02-.44c.14.09.26.08.4,0s1.42-1.03,1.53-1.14c.37-.39.06-.27.51-.52.61-.34.75-.68,1.25-1.07.46-.36,1.11-.77,1.54-1.15.36-.33,1.42-1.28,1.65-1.62.12-.17-.01-.27.03-.42l.32.19.32-.53-.39-.31.67.33c.14-.25.47-.51.11-.66l.6-.29-.12-.28c.27.22.34-.06.47-.3l.25.3.19-.32-.33-.05.08-.24c.16.14.86-.53,1.04-.73.4-.43.43-1.08,1.07-1.1l-.12-.28c.07.06.16.13.25.05.3-.25,1.24-1.3,1.54-1.66.28-.34.19-.83.76-.46l-.37-.58c.45-.06.75-.63,1.01-.88.02-.02.18.08.23.02.15-.18.4-.96.61-1.21.08-.09.22.17.29-.04l-.18-.19.27-.19-.43-.48c.41-.07.88.1.89-.48l.23.07c.14-.21-.29-.15-.05-.39.09-.09.2.11.26.02.37-.52,1.06-1.65,1.38-2.22.11-.2-.11-.24-.07-.35.02-.06.17-.12.19-.23.04-.28-.38-.73.34-.44.14-.27.16-.86.24-1.05.08-.2.47-.2.59-.77.05-.26-.22-.34.07-.61l.08.34c.22-.29.26-.66.32-1,.01-.07-.13-.18-.13-.21.02-.19.63-1,.78-1.32.15-.29.43-.2.09-.65l.37-.14c-.38-.17.04-.41.11-.7.08-.32-.25-.48.32-.96.12-.1.3.18.38-.16l-.39-.31.37-.14c-.43-.37.43-1.02.11-1.6l.27.03c.05-.36.06-.79.17-1.13.05-.16.25-.26.25-.28,0-.06-.3-.25-.33-.37-.01-.05.31-.79.36-1.03.06-.33-.04-.06.13-.57.04-.13.09-1.44.05-1.51l-.25-.03c.33-.44.69-.33.96-.87l-.76-.18.54-.18c-.03-.14-.1-.28-.09-.43.02-.33.2-.69.23-.86.05-.3-.1-.62.05-.92.24-.49.68-.18.74-.53.13-.36-.38-.54-.42-.67-.03-.07.15-.34.14-.53-.01-.31-.43-.34.12-.65-.3-.45.09-.96.01-1.45l.35.14c.33-.37-.23-.2-.25-.3-.06-.31.35-.09.37-.13.19-.39-.37-.67-.38-.77-.01-.1.2-.3.19-.45-.01-.21-.72-.54-.28-.74l.14.37.22-.86-.51-.33c.28-.51.78-.2.79-.82l-.34.08c.61-.97.73-1.89.76-3.03l-.49-.28c.12-.33.23-.14.45-.02l.38-1.58.35.14.19-.32-.38-.22.34-.67-.44.02.55-.68-.27-.02c.27-.43.32-.94.47-1.4.8-2.42,2.22-4.95,4.94-5.53ZM189.83,3.53l-.43-.12-.61.64.32.04c.06.03-.18.46.15.25.21-.14.28-.67.56-.81ZM185.1,12.14c-.13.03-.46.17-.5.28v.67s-.27-.02-.27-.02l.36.36.13-.93.53.32-.27.56c.6,0,.23-.49.68-.79l-.19-.5c-.18.2-.38.03-.48.05ZM189.69,10.68c-.69-.02-.75.2-.78.83.39.32.32-.38.71-.22l.07-.61ZM186.15,18.66c-.02-.09-.88-.84-1.12-.54.28.3.68,1.1,1.12.54ZM189.35,12.59c-.05.03-.2-.08-.22-.02l-.19,1.26.79-.82-.44.02.33-.67c-.11-.04-.13.15-.26.23ZM180.33,30.17l-.13.93.3-.24.42.25.15-.49-.61-.07s.16-.48-.13-.38ZM182,30.69c-.68.05-.58-.59-.77-.56-.1.33-.02.54.27.74l-.38-.09c.04.78.58-.19,1.04.19.25-.65-.06-.3-.16-.29ZM166.63,56.57h-.58s.35.15.35.15l-.53.4c.26.18.57.12.79-.07l.14.2c.14-.15.11-.37-.07-.48-.14-.08-.16.39-.35.22l.25-.42ZM195.6,10.94l-.38.63.45-.15c-.17.62.18.98.58.35l-.38-.08c.19-.43.18-.56-.27-.74ZM191.69,19.16c-.08.06-.1.31-.28.37l1.26.55c-.4-.33-.19-.51-.23-.93-.26.35-.4-.26-.75.01ZM169.27,60.34l-.89-.68.34.64-.4.19c.05.15.89.15.95-.14ZM196.46,13.66c-.47.36-.08.98.3.87.05-.01.05-.85.08-.96-.06.12-.36.08-.38.1ZM172.29,58.7c-.04-.07-.23-.07-.14-.36l-.75-.22.07-.48-.51-.33-.34.81c.33.29.14-.16.45-.16l.21.49c-.38.1-.55-.05-.77.33l.34-.04.29.2-.33.89.59-.15c.03-.44.1-.61-.26-.97l.35-.35v.58s.32-.39.32-.39l.36.36c.05-.07.08-.14.13-.21.09.17.55.88.56.94,0,.04-.35.37.2.68l-.3.25.49.15c-.09.35-.28.05-.45.19-.13.11-.13.28-.21.42l-.36-.36c-.31.45.4.29.06.61l-.24-.07.26.44c-.14.6-.54.29-.72.8.57-.08.72.79,1.13.4l.13.37c.33-.32-.13-.6.03-.99.32.23-.01.45.54.62l.63-.64-.32-.19-.32.53.35-1.3.6.44-.14-.43.44-.54c-.52.2-1.33-.59-1.08-1.09.3.36.62.58.98.86.36.04.4-.29.44-.58l.46.42c.3-.49-.66-.55-.66-1.05l.37-.14.02.44c.23-.21.16-.5.23-.72.05-.14.25-.25.24-.3-.06-.31-.24-.02-.31.02-.23.12-.54.27-.49.58-.48-.04-.04-1.06.52-.85l-.15-.23c.42.08.4-.16.74-.27,0-.42-.46-.13-.31-.53-.45-.27-.78-.07-.81-.09-.14-.09-.28-.4-.53-.45-.12.55-.47.48-.19,1.04l-.33-.13c0,.22-.11.37-.34.3l-.09-.52.2-.14-.49-.15c-.17.22.06.4.17.68-.31-.19-.42.23-.76-.17l-.12.21c.31.14.1.34-.05.55ZM178.33,47.72c.55-.44-.45-.99-.54-.37l.06.4c.05.07.46-.01.48-.03ZM170.17,61.47l-.51.12.57.49.15-.24c.44-.16,0,.43.38.56.33-.41-.17-.56-.06-.88l-.22-.08c-.04.44-.6.47-.31.03ZM175.38,55.51c-.39.34.09.69.1.79.07.53-.28-.2-.37.13.09.33-.09.71.34.86-.37-.61.17-.61.19-.9,0-.11-.28-.66-.27-.88ZM177.21,54.88c-.23.1-.01.39.09.48.23.21.19-.21.37-.05-.17.37-.34.59-.72.72l.53.32.28-.69.49.14c.02-.26.28-.63,0-.72l.34-.08-.18-.18.37-.14c-.39-.1-.47-.04-.64.34-.22-.18-.32-.48-.67-.33l.37.58-.36-.36-.27-.02ZM194.39,29.47c-.08,0-.38.26-.37.32l.25.3.31-.39c-.09.36.27.49.49.73l-.29-.47.3-.25s-.64-.24-.69-.24ZM179,57.03c-.17.06-.4.2-.22.4.06.07.09-.11.26-.12.08,0,.19.13.24.13.02,0,.02-.24.13-.35.15-.15.67-.35.66-.47-.06-.38-.54.23-.57.23l-.25-.3.08.34c-.09.33-.24.11-.32.14ZM197.54,28.02l.43-.68-.64-.88c-.12.17.07.43.07.52,0,.24-.26.81.14,1.05ZM178.4,57.92c-.08.11-.33.66-.06.69l.84-.79-.42-.26-.04.55-.32-.19ZM199,24.42c-.13.53-1.11.87-.58,1.4-.47.22.17.29.38.21.12-.04.14-.43.58-.09l-.13-.37-.45.02.08-.39.71.15-.23.14.36.36c.14-.2.18-.49-.06-.62l.13-.2.2.11v-.71s-.44.02-.44.02l-.37.36-.19-.4ZM178.74,59.67c-.33-.02-.42-.26-.72-.17l.29.38-.26.28.38.09-.53.4.02-.27c-.31-.18-.64.74-.56.83l.57.34c.31-.32-.15-.2-.15-.23.02-.28.46-.09.6-.29l-.21-.36c.39-.24.49-.33.47-.78.14-.18.42.32.45-.02.05-.56-.33-.2-.36-.2ZM188.51,44.46c-.13.02-.2-.09-.25.06.24.18.62.24.88.06.19-.13.17-.34.26-.43.1-.1.72-.14.42-.42-.26-.24-.68-.16-.87.11l.19.42-.16.26c-.19-.19-.29-.09-.47-.07ZM182.09,57.56c.05-.54-.64-.55-.99-.74-.09.47.36.53.58.73.08.07.01.29.23.33l.19-.32Z"/>
    <path class="cls-1" d="M358.9,240.19l-2,2.98h3.99c-2.26-4.55,1.25-4.24,1.48,0,8.25-1.9,17.99-.69,26.48.02l-3,1,2.5,3.98.73-1.8,1.8-.76-1.04-2.42c1.96-.7,1.88.65,1.98.7.46.25,5.12,2.67,5.95,2.86.89.2,3.94-2.04,5.54-1.37.83.35.96,2.02,2.09,2.69,3.48,2.05,7.7,1.5,5.42,7.08l5.01-3.55c2.35,1.1,1.87,5.8,4.95,5.57l-.1,1.9-1.95.62,2,5.96,3.06.48-2.01-4.47,2-.51,3.79,8.48-1.78,3.49h3s-1.99,7.99-1.99,7.99l3.98-.99-1.98,2.47c4.64,3.49,1.17,6.74,1,11.01-.19,4.64.13,9.31,0,13.96-.09,2.9-2.76,5.05.99,5.99-3.83,2.1-1.89,4.22-2.46,6.52-1.68,6.78-4.51,10.52-9.39,15.66l.87,3.28-4.47-1c-1.69.29.27,4.95-2.46,2.94-1.78-1.31-2.19-3.95-1.06-5.92h-3.99s.99,4.98.99,4.98l-1-2.99c-3.2,3.38-9.19,3.36-13.32,1.82-1.38-.51-1.4-2.21-1.86-2.49-.43-.26-1.7.42-2.32-.2-1.65-1.67-1.06-3.66-2.02-5.09-.89-1.33-3.8-.32-1.55-3.55l-1.87-.48,2.04-1.54-3.04-7.94,1.99-.98c-3.33-1.74-2.21-9.13-3.01-10.49-.05-.09-1.31.78-1.98.37-3.35-2.06-4.92-5.67-9.98-5.38l-.13,3.93c-3.88-.79-7.07,7.77-2.87,8.56-2.87,2.19,0,6.12-4.99,6.51,4.6,2.96,1.75,3.07,2.41,6.02.89,3.96,4.19,7.68,4.59,11.95l2.98-1.01c-1.16,2.81.27,4.34,2.01,6.5l-1.97.51-.03,1.46c3.54,1.24,4.19,5.79,6.47,7.6.92.73,2.3-.09,2.39.02,1.4,1.8,3.53,6.03,6.11,9.36,2.34,3.02,3.14,8.55,7.98,6.5l-2.98,2.97c2.72.23,3.61,3.89,5.44,6.05,1.09,1.28,2.93,1.81,3.96,3.03,1.39,1.65,2.49,5.5,3.85,6.66,1.75,1.5,4.25-.56,5.7,1.77l-2.05,2.01,13.96,22.22c2.42,6.02,3.5,13.29,5.56,19.21.52,1.51,3.57,5.4,3.44,6.5-.14,1.23-3.25.84-2.92,2.45l3.01.53c-.58,7.11.98,14.6,1.33,22,.2,4.15.32,29.78-.56,31.94-.29.71-1.97.17-1.79.94l2,3.03c-3.38.87-1.9,5.6-2,8.97-.08,2.75-2.59,4.06.99,4.98-4.59,3.44-3.63,6.75,0,10.48l-4.98-.99c-.39.59-.27,8.18-.68,9.98-.19.85-5.72,11.87-6.22,12.35-.93.88-1.96.65-3.09.64-.67,1.44,3.11.8,1.98,1.97-.07.07-.92-.39-1.87.88-2.33,3.14-5.88,7.49-5.12,11.11-1.49.49-.71-3.87-2.97-1.98-.29.24-2.19,5.03-3.3,5.7-1.29.78-7.4,3.43-8.66,2.29.39,6.18-5.72,3.65-8.59,4.34-1.22.29-.93,2.25-2.17,2.65-4.34,1.4-13.04-.64-15.69,3.85l-5.55-.85.5,1.99-2.92-1.91c-2.85,2.33-5.86-.12-8-.13-.34,0-1.02,3.4-3.56,2.03l.51-1.99-10.57-1.5.09-2.48c-2.41-1.25-1.83,2.02-2.55,2.06-2.84.15-8.92-3.42-8.45-7.07l-2.8.86c-3.43-4.05-5.69-7.43-8.26-12.04-.97-1.74-3.15.29.09-4.78l-2.98.99c-.58-1.46-1.09-8.39-1.27-8.8s-3.35-2.04-3.49-5.86c-.11-3.02,3.97-6.72-2.3-9.93l.98-2.93-1.97-.98.96-11.01-1.93-1.9c2.98-3.47-.16-6.93-.88-11.09l1.89-.43.03-1.48-2.04-1.01,2.07-3.99-2.12-1.09.98-4.3-1.9-.61,3-.51c.44-1.71-1.81-.4-1.97-1.57-.44-3.2,2-5.28,1.9-5.76-.85-2.49-2.15-3.87-4.91-3.65l2.97-2.98c.17,1.56.91,3.47,3.02,2.99-1.53-2.9-1.22-7.26,2.01-8.48l-2.03-.99v-2.01c2.54-.89,2.01-5.24,3.65-8.37,5.43-10.3,16.5-10.95,26.83-9.55.93.13,5.06.6,5.3.71.34.15,2.5,4.21,6.19,2.73-.11,1.45-1.08,5.39-.79,6.49.16.61,1.64.39,1.79,1.16.29,1.56-.1,7.18,0,9.3l3.99-.98c-.08,1.64-2.76,1.41-3.02,2.69-.92,4.45,1.67,10.02,2.82,14.03.3,1.06-.74,2.35-.52,3.05.05.15,1.04.19,1.25.58,2.29,4.12,5.36,6.85,10.48,4.88,2.08-.8,6.4-6.05,6.69-7.9.23-1.52-1.09-3.6-.75-5.8.44-2.9,3.96-2.87.03-4.13v-7.4c-4.15-1.65-3.44,3.09-6.01,1.48l1.11-4.39,4.88.9c1.01-3.38-2.07-3.12-2.95-4.79-1.15-2.16-2.79-10.7-3.25-11.04-.56-.4-4.74-2.27-5.77-2.15l3.98-6.98-2.01,3-2.48-1.98c-1.46,1.8-1.41,4.31-4.5,2.48l3.17-4.28,2.3.79.5-1.99c-2.64.34-2.05-2.09-2.92-3.27-1.56-2.1-4.91-4.01-5.15-4.33-3.11-4.23-5.94-10.77-9.83-16.15-2.75-3.81-5.65-9.87-9.53-12.21l-4.5,3.98,2.82-9.49c-4.6-2.15-2.62-4.5-3.27-5.47-.4-.59-1.95-.66-2.31-1.25-.84-1.39.85-3.62-2.23-4.24,15.07-8.63-4.06-4.4-4.01-13.5l-2.98,1.01,1.98-3.47c-2.53-1.16-1.89-4.38-2.38-5.26-1.03-1.84-3.24-1.62-4.59-2.76l3-.5v-1.5c-2.25-2.27-1.01-4.58-1.46-6.51s-1.63-3.38-2.02-4.99c-2.93-12.37-5.59-25.21-4.51-37.91l2.97,2,.05-2.48c-4.86-1.49-1.47-9.09-2.05-13.5-.84.42-2.51,2.02-1.96-.46,1.29-5.89,5.28-14.54,7.93-20.05l-1.96-2.43,2.86-.12,2.11-6.39-3.97-1.99c1.87-3.59,7.52-2.37,9.71-3.78.64-.41,4.88-6.1,6.76-7.72,1.34-1.15,3.82-1.69,4.52-2.48,1.65-1.85-.13-4.98,3.96-5.51l-.99,2.98,2.5.03c.76-3.41,3.26-.92,6.43-1.55,1.17-.23,4.92-1.5,5.98-2.04,1.85-.94,2.54-3.77,5.06-3.41ZM413.81,262.16c-3.6.49-5.16,3.72-8.51.24l-2.47,2.74h6.98s-3.99,3.01-3.99,3.01c2.93,6.18,8.73-5.38,7.99-5.99ZM340.78,322.21l-5.85-2.15c.98,4.7,6.7,7.47,10.98,5.98l-3.51-3.99c-1.03,1.39.19,2.55-2.49,1.99l.86-1.83ZM353.9,332.04c.68-2.63,2.24-1.64,1.22-3.84l1.77-1.14c-1.23-.08-2.72.42-3.82-.25-.56-.34.48-2.19-1.16-1.75-1.03,3.1-2.71,3.15-.02,5.97l-1.98,2.01c1.32-.17,2.75-.52,3.99-1-.43,1.64-.71,2.17.01,3.99,1.93-.41,1.16-2.89,3.68-3.82,4.8-1.76,3.4,5.58,7.28,1.32l-2.77-1,.74-1.44c-5.66-2.59-4.33-.82-8.96.94ZM400.85,333.04c-.5-3.64-2.75-3.74-3.01,0l7.96,4.01,4.01-4.49c-1.88-3.13-4.94-1.26-7.96-2.51l-.99,3ZM355.89,388.96h-7.98c-3.14,3.18,9.25,7.34,7.98,0ZM348.89,492.82l-1.99.49c3.49,4.38-6.12,10.29,2.02,8.97l-2-1.48c2.74-.66,1.48-2.79,4.98-1.02l-2.99-2.01.69-1.98,1.32-.5-2.03-2.47ZM418.78,504.79l-1.98.57c-2.19,6.71.21,12.29,6.8,5.93l-4.82-6.5Z"/>
    <path class="cls-1" d="M204.65,289.13c5.23,2.49,11.68,4.51,16.63,8.43,1.35,1.07,3.78.08,3.6,4.37l2.97-1.02c-.63,2.76,3.96,7.2,3.98,7.65.2,5.08,2.6,3.67,2.84,4.52.33,1.17-2.38,2.47,1.11,3.28l-.98,2.96c3.05.93.94,2.42,1.88,5.19.61,1.79,6.33,6.38.19,7.43l2.99.98c1.07,3.93-2.58,1.86-1.99,5h3.01c.61,1.76-1.7,2.55-1.67,3.48.02.66,1.33,1.48,1.44,2.27.31,2.16-2.03,3.57,1.22,3.27-3.31,3.29-.71,6.24-.92,10.49-.34,6.64-2.01,13.27-2.1,19.95l3.02,1.53c-4.43.27-1.91,3.03-2.24,3.84-.07.18-1.56.15-2.06,1.4-1.45,3.62-4.12,18.74-4.83,19.63-.12.16-2.28-1.03-2.86.65,4.98,1.55-1.68,5.87-1.73,7-.02.57,1.64,1.33,1.25,2.48-2.17,6.34-5.34,3.93-9.07,7.51-1.26,3.22,1.3,3.75,1.46,4.27.89,2.94.37,6.59,3.09,8.75l-1.99.5c-.2,1.81,1.81,0,2.08,2.42.46,4.08-1.79,7.72-1.71,9.05.04.71,1.41,1.77,1.56,3.06.28,2.56.67,13.11,2,14.02l4.06.45-5.96,2.46c.69,1.62,2.08,3.8,2.4,5.42,1.26,6.48,1.1,15.06,2.05,21.63,1.06,7.33,4.86,13.21,1.53,20.47l1.49-2.01,2.46,2.05-.04,1.89c-2.41-.32-2.44,2.38-1.9,4.41.17.63,2.96.74,1,5.65l2.98-1c.91,2.61-1.5,1.69-1.79,2.46-1.98,5.27,2.28,16.36,2.47,22.04.17,5.11-.62,27.41-4.85,30.33-.24.17-1.38-.84-1.65-.65-1.59,1.1.01,4.58-4.15.82-.02,3.49-3.34,2.61-5.53,3.99-2.9-1.63,4.77-3.25,1.52-4.51-.63-.25-2.16.38-3.66-.23-2.59-1.07-5.72-2.43-7.86-4.24v4c-5.94-3.24-13.18-.83-18.68-4.34-3.97-2.53-4-7.64-6.8-11.19l1.98-.47c-.29-8.28-1.44-16.44-1.71-24.73-.07-2.02.13-3.9.04-6.53-.27-8.16.91-20.49-.45-28.12-.52-2.93-1-5.19-2.86-7.62l2.99,1c.14-1.08.44-2,.44-3.11-.02-4.03-.19-10.15-5.42-7.9l3.98-3.48-4.99-3.01c1.3-3.12,4.6,2.44,5-1.03.27-2.37-4.41-6.98,1.99-10.47l-6-.02,1.01-3.99-5.5-.06c-.19,3.33-2.14,7.53-2.54,10.49-.36,2.71.66,6.58.04,8.9-.22.83-2.18.58-2.01,1.13.2.61,1.3,1.35,1.45,2.4.36,2.61,1.23,7.49-1.45,7.6,3.02,6.65,1.69,17.28,1.65,25.23-.02,3.61-1.3,18.26-.58,20.65.23.76,1.87.59,1.98,1.28.67,4.25-6.05,13.42.97,15.86l-4.02.5c-.35,2.62.03,2.56,2.05,3.5-.03.79-1.77,3.81-2.37,4.23-2.06,1.46-3.36-2-1.68,4.26l-1-1.99c-1.98-.4-2.64,1.84-4.45,1.94-2.17.13-8.01-3.25-11.34-3.77-1.64-.25-3.91.78-4.08.66-1.77-1.33-2.96-5.08-6.49-2.78-.84-4.22-10.97-4.15-11.63-5.13-.27-.4.6-1.42.56-1.82-.43-4-3.95-.43-4.55-1.1-.14-.15.16-1.91-.6-2.93-.6-.81-2.07-.77-2.41-1.82-1.99-6.16-.58-18.94.01-25.73l-3.01-.55c-.38-1.6,1.45-.45,1.95-1.72,1.15-2.87,2.3-12.72-.96-13.76l3.99-.51-2.73-3.46c2-1.86.8-5.97,3.72-5.55v-.97c-5.02-.9-1.07-12.14.02-15.55l-1.86-.91c2.02-7.18.22-15.6.18-22.05,0-1.27,1.79-2.54,2.17-4.04.15-.62.65-12.23.47-12.84-.26-.88-1.29-.64-1.95-.63l4.03-4.61c-.22-1.12-.57-2.26-1.4-3.09-.69-.69-5.27-1.95-5.63-3.27l5.98-1.03c.82-2.11-1.08-4.94-1.01-6.41.03-.71,2.39.15,2.1-3.1-.17-1.94-1.88-1.26-2.03-2.08-.47-2.6.67-9.27,3.96-9.9l-4-2,2.97-1.98-3.99-3,3.02-.5-2-5,2.99.99c.25-.22-3.21-5.64.99-5.01l-1.8-1.44-.14-24c-2.58-7.28-1.19-14.99-2.04-22.56l1.98,1.02-.03-1.98c-3.9-.25-2.31-5.92-1.12-8.57l-4.85-1.47c-.7-2.73,2.16-2.46,4-3.01l-2.03-3.48c4.46-1.48.55-7.63,2.03-11.5-.2-.19-4.97,1.58-4.99-1l5.06-.47.8-5.11,12.65-7.44.98,2,2.01-3.99.99,2.99c6.41-2.65,13.51-6.41,20.27-7.82,4.87-1.02,1.99,1.59,6.61-1.84.54-.4,1.54-.25,2.24-.73.56-.38.36-1.53.43-1.58.39-.24,5.71,4.42,6.97-2.03,1.64,1.06,2.29,1.86,4.47,2.08,3.2.33,17.21-2.38,18.28-1.88ZM144.88,319.93l-4.99,1.01,1.51,5.94,2.13,1.85,3.35-.81-4-4.5c2.05-.97,2.36-.86,2-3.48ZM191.63,367.73c-1.43-6.6-.34-24.96-8.49-26.63-4.57-.93-6.96,2.17-8.63,6,1.21,16.5-3.05,37.85,1,53.72.64,2.51,3.54,5.45,5.94,3.18l1.91,1.92c1.2-.47,2.63-4.47,2.37-5.51-.18-.75-3.01,0-1.85-2.49l1.98.46c.28-3.35,2.69-6.41,3.48-9.49.5-1.95,1.94-12.89-1.46-11.99v-.97c2.37-.28,4.59-3.19,3.94-5.38-.15-.49-4.99-1.66-.2-2.83ZM225.64,369.17c-1.49-1.48-6.42-2.1-7.74.26l4.96,5.5,1.52-2.98,2.49,1.98c.07-1.39-.27-3.8-1.23-4.76ZM171.56,492.72c1.48-2.79-2.09-4.87-3.67-3.8-.93.63-1.45,8.5,1.5,8.99,3.04,1.22.59-4.16.58-4.56-.02-.48,1.47-.41,1.59-.63ZM151.86,498.93h-2.98c1.86,2.85-2.14,2.78-3,4.98l4.98,2.01,1-6.99ZM168.88,510.93l-2.64,1.47-.36,6.5,5,1.01v-2.99s-3-.99-3-.99l3.99-3.01-3.99.99,1-2.98ZM143.86,519.95c-2.38-3.23-13.51,6.55-.91,4.54,1.04-.75,1.36-3.93.91-4.54ZM231.73,540.09c-5.53-2.43-5.53,5.45-5.88,5.81-.32.33-2.49-.37-3.71.28-.5.26-1.55,2.97-3.25,3.25l5,2.5c-1.31-2.47-.56-3.32,1.5-4.97,1.64,3.42,2.75,3.36,6.5,2.99l-.11-5.95-2.89-.06.48-1.98,3.52.97-1.15-2.83Z"/>
    <path class="cls-1" d="M457.83,252.99c.17.18-.27,1.74.71,1.98,1.48.36,8.96.05,11.52.3,2.43.23,5.12.7,7.41,1.57l.43-1.9,3.48,2-.5-2h1.99c-.06,2.91,2.48,2.5,3.96,3.6.95.71.86,2.45,1.58,2.43,1.5-.04,2.42-2.13,4.86-2.05,8.58.3,18.79,5.55,26.61,8.34,2.6.93,10.53-.46,8.01,5.66,2.89.89,1.77-2.38,3.98-2.99-.12.73.09,1.58.71,1.99,5.31,3.48,15.34,11.46,17.74,17.98.37,1.02-.72,2.76-.44,3.01s2.26-.53,3.1.61c.55.74,6.6,16.79,5.91,17.4l-3,.99c4.27-.73,6.12,6.32,6.76,9.75,2.66,14.17,1.62,38.81,1.28,53.8-.12,5.32-3.13,5.29,2.95,8.96l-4.53.44c-1.35,12.13-5.95,22.88-10.58,33.94l-3.89.12,1.85,2.37c-1.3.77-.93,2.9-1.21,3.38-1.72,2.93-12.62,12.82-16.14,13.8-1.12.31-2.94-.61-3.3-.34-.42.32-.61,1.84-1.81,2.63-2.97,1.97-10.83,4.93-12.45,6.69-.67.72.36,6.08-2.53.38l-3.41,1.08,1.99,1-1.48,1.95-4.5-1.96c.22,3.45-4.23,7.91-4.52,10.49-.41,3.69,1.6,13.09,1.88,17.39.86,13.05,3.75,28.08,3.26,40.8-.72,18.3-24.2,25.5-38.16,31.33l-.49-1.99h-1.99c.9,2.4-1.41,3.89-3.56,3.89-.75,0-.81-2.26-1.95-2.89-2.11-1.17-.83,2.5-2.48,1.99l-.1-2.9-4.84-.16c.8-3.11-2.51-6.22-2.64-8.41-.11-1.95,1.65-4.42,1.58-5.94-.02-.36-3.96-2.8-2.86-6.09.88-2.64.98-.45,1.2-5.57.14-3.11,1.69-10.04-1.36-10.43l2.04-1.14-.05-21.89,3.03-2.5c-.99-1.9-2.79-3.19-3-5.56-.67-7.54,2.14-18.54,1.09-26.99-.29-2.35-1.96-.92-2.1-1.93l2.77-1.92c-1.42-3.43-.83-7.09-1.17-10.58-.1-1-1.15-1.92-1.25-3.33-.15-2.01-.28-14.1.13-14.71.5-.76,2.46-.69,2.46-1.4-.69-1.41-1.27-2.98-1.42-4.55-.48-5.04-2.18-15.84.41-18.43l-.92-8.57c-1.82-.4-.63,1.69-1,2-1.37,1.15-1.56-4.18-1.99-4.99l3.01.48c-3.15-3.25.2-6.17-.02-6.47-.08-.11-1.7.27-1.97-.64-.36-1.19.72-12.39.69-14.88-.06-4.61-.28-32.14-1.21-33.54-.63-.96-2.53-.59-2.52-1.46,5.24-1.49,1.31-8.08,1.4-11.01.08-2.6,3.9-6.34-.4-10.01l2.07-.99-2.13-5.45-1.94.46c.27-3.6,4.29-3.25,3-7.49l-5.99-.51,5-.5c-1.41-2.08.93-2.81,1.48-4.5,1.28-3.89-1.51-3.71-1.53-4.05-.25-3.59,5.89-12.23.09-13.9,2.86-5.16,1.64-11.66,5.97-16.1l5,.55-.5-2,1.44.07ZM505.64,321.25l-2.55-.04c-1.75,2.5-3.9,4.35-4.99,7.43-.91,2.6-2.5,15.06-2.27,17.82.17,2.03,2.03,1.31,2.06,2.05.12,2.89-1.89,8.77,1,10.92-3.02.72-1.95,7.05-1.95,9.96,0,1.11-.44,2.16-.97,3.11l1.84.84c-2.04,3,.86,7.13-2.97,8.1l.13.85c2.42,3.22,3.7,9.09,8.41,9.21,4.96.13,4.83-4.68,6.73-6.27.23-.19,3.68.13,4.78-2.81l-1.99-.99c3.07-2.15,3.45-5.51,4.01-8.98l2.98.47-3.99-3.5c2.31-.76,2.35-1.47,1.99-3.98l1.99.5c.58-1.74-1.34-2.23-1.55-3.47-.32-1.96,2.43-8.35,1.55-9.54l-4.99,2.99c2.74-3.95,6.18-4.41,3.99-9.99-5.26,3.66-8.2,3.76-11.98-1.51l5.01-1-1.02,3.51c2.36.31,3.78-2.02,4.02-3.99l3.98,2c1.2-6.12-4.19-10.94-1.99-15.99-4.03.87-2.79-1.99-4.29-3.72-1.97-2.29-6.16-1.28-6.96-3.96ZM519.88,396.92v-1.99s-1.99,1.5-1.99,1.5l1.99.49Z"/>
    <path class="cls-1" d="M410.93,31.89l2.45.06,2.48-3.01c-.25,3.12,4.75,2.26,7.26,3.07,4.29,1.38,13.4,9.57,18.74,12.38,1.34.7,2.59.63,4.02.56l-3.08,2.64,1.07,7.35-2.51-.98-.49,1.98h3.02s.98,2.01.98,2.01l.99-3c2.36,3.26,3.72,5.76,4.71,9.79,1.19,4.82,3.28,12.09,4.06,15.69,1.44,6.61-.77,14.69,2.24,20.02l-1.91.91c-.04,1.8,2.53,6.44,2.53,7.09,0,.96-2.37,2.8-1.66,5.87.27,1.16,2.47-.04,2.04,1.61l-2.9,1.57,1.36,22.6c-3.23,14.99-2.26,32.26-4.51,47.28-.44,2.96-5.24,8.77-1.01,8.62l.07,1.43c-4.76,1.87-3.43,6.12-5.05,9.75-.17.38-4.81,6.26-5.17,6.46-.4.23-1.64-.78-1.72-.68-.28.34.21,2.38-1.04,3.48-.94.83-9.22,4.41-10.53,2.52l-.48,2.98-2.48-2.01c-2.19,2.64-5.31,1.46-7.84,2.04-.81.18-.55,1.68-1.16,1.77-1.58.23-11.27-.53-12.33.39-.58.5.48,2.22-1.18,1.81l-.53-3.03c-1.52-.06-3.15.66-4.62.47-11.15-1.43-20.03-1.24-30.11-7.46-3.58-2.21-1.48-.55-3.59-1.18-.84-.25-9.87-13.05-10.37-14.08-.73-1.5-3.94-12.15-3.83-13.16l2-.59-.03-1.91c-.51-.03-1.24-.07-1.53-.47-3.28-4.61-2.36-13.22-2.73-19.34-.1-1.69-2.03-3.6-.66-6.25l3-.99-2.99-.57c.47-3.94-.74-7.94-.87-11.87-.34-10.29,1.69-23.12.97-33.09-.18-2.45-2.31-.64-2.11-2.45l3.02-.53c.32-2.28-2.3-6.35,1.96-6.5v-.97c-2.26.98-5.35-9.54-4.98-10.01l4.99,1.99c-1.35-17.5,3.95-53.33,22.32-61.17,7.45-3.18,5.31,4.47,11.67,2.17l-2.99-1,1.99-1.98-3.98.99v-2.99c3.37.53,5.63-2.16,8.77-2.8,6.02-1.22,16.44,3.11,23.29,1.23l.98,3.53ZM369.88,61.93l-.99-3c.39,3.6-4.79,1.46-4.01,4.99l2,1.99,2.02-2.99,1.62,2.01h3.36s0-6.01,0-6.01l-3.99,3ZM407.88,63.94l-5.82.17-1.17,5.81,6.85-1.13.15-4.85ZM408.47,89.58c2.22-3.31,2.78-7.17-1.01-9.72-6.79-4.56-11,8.34-12.12,13.01-1.65,6.82-1.66,12.7-1.5,19.56.03,1.22-.95,3.05-.8,3.36s4.42,2.69,4.84,4.64c-7.47-1.23-3.61,9.87-3.42,14.99.23,6.19-.99,12.5,1.44,18.99-5.91-.43.46,1.91,1.3,3.77.86,1.9-.38,3.32-.07,4.98,1.27,6.86,12.04,1.9,13.75-2.75l-2.01-.99c3.85-.78.71-4.57,2.01-7.5l-2.99.5c5.81-2.76,3.06-.97,3.37-4.81.74-9.34,2.24-20.92,2.24-30.03,0-3.57-1.95-11.56-1.69-14.06.09-.87,3.26-.1,2.07-2.61l-2.01.5c2.85-5.84-3.55-4.17-1.91-9.91l-3.07-.58c-.41-1.52,1.13-.67,1.58-1.34ZM385.87,118.93c-3.86-.34-7.5,2.97-7.98,7l2.48-2.99,6.5,4.99-1.99-2.99,3.98.99.03-2.5-4.03-1.51,1-2.99Z"/>
    <path class="cls-1" d="M294.89,260.92l2.98-3.99.1,3.95,2.87.1.52,4.05,2.51-.1-.02,1.98-1.73.18c1.31,2.72.26,1.75-2.23,1.84l2.96,2.59-.99,3.83c4.27,2.66.5,12.45.24,17.07-.73,12.79,1.38,26.64-1.22,39.9l1.99,1.05c-4.3,12.46-1.99,26.47-1.44,39.02.07,1.51-2.13,11.06-1.55,11.51l3,1.01c-6.26-.83.66,3.57-3.99,4.5l3.99,2.52v1.47c-1.15,1.33-2.77.77-3.05,2.96-.58,4.52,2.67,1.12,3.05,3.54-1.64.24-2.72-1.09-2.78,1.24-.07,2.64-.5,5.37.78,7.76-1.8-.59-5.17.13-4.98,2.51.23,2.78,7.15-1.65,8.97,2.01-.72,2.41-3.12,1.75-2,5.49l-1.98-1.01-.9,11.93,1.91.58-2.05,1.06c1.74,2.5-.01,4.73.04,6.94.15,5.83,3.47,17.45-1.01,20.99,5.03,3.08-1.61,11.6,3.98,12.53l.03,1.48c-2.7.75-2.39,3.61-2.57,6.23-.29,4.16,1.06,9.48,1.09,12.73.02,3.1.23,10.55-2.54,11.05l3.02.51c-.52,1.21-.93,2.09-.99,3.49-.44,10.52,3.31,23.76-1.02,33.48,4.9.83,2.01,8.27,2.35,11.49.3,2.89,1.76,5.56,2.09,8.38.48,4.17-2.8,8.37,3.55,10.65l-2.5,2.5-2.49-1.99c1.95,2.68.47,7.8-2.73,8.78-.87.27-2.15-.44-3.27-.11-9.78,2.88-30.57,5.31-40.06.86-2.81-1.32-3.18-4.57-6.94-4.6,1.66-2.94-1.38-6.61-.67-9.5.41-1.67,3.43-.73,2.67-2.93-3.36-.26-3.28-6.95-2.07-8.82.66-1.03,2.41-.15,2.06-1.67l-3-1.56c2.24-3.5.47-4.66.5-6.53.02-1.56.71-4.33.54-5.26-.19-1.07-3,.05-2.04-2.65l3.99-.5-3.99-1.52c2.36-2.61,1.62-5.67,1.99-8.99l-3.99-.5,4-.5c-1.81-3.96,2.09-10.2-2.01-11.49,1.32-1.99,4.37-8.6,1-9.01l2-2.49-2.99-.02,2-2.48-1.96-.54-.06-1.46c3.24-.85,1.63-3.08,2.24-5.76,1.74-7.68.44-2.82-.23-5.37-.16-.62,1.12-9.87,1.08-11.86-.08-3.94.04-9.78-.15-13.08-.14-2.45-4.22-3.21,1.08-4.46-3.67-7.81,1.29-18.26-3.01-26.47l3.01.48c-2.91-6.33-.95-15.59-.08-22.58l-1.92-.91,1.99-4.5-3-.49,3.01-1.02-2.02-1.97c2.85-5.42,1.18-13.26,2-19.52-4.27.41-8.04,1.61-8.99-4l6.44-.91,2.54,2.89c1.48-3.48.92-6.39-.09-9.89l-3.9-.61,5.01-.51-1.89-1.07,1.73-17.47-1.85-.93c1.84-1.94,2.94-9.71,0-10.02l3.01-2c-2.97-.58-.24-3.4-4.01-3.52-.17-1.81,1.82.03,2.08-2.41.16-1.45-.23-3.09-.09-4.58l-2,.5c3.6-6.86.7-14.3.49-20.99-.08-2.65,2.23-5.41.51-8.5l-2.48,1.02-.5-2c3.38.1,4.34-11.33.98-11.5,3.25-1.71,1.79-6.65,2.24-8.01.23-.68,1.41-.55,1.68-1.26,1.58-4.21,1.03-8.4,6.83-9.04,3.67-.4,3.17,2.69,6.25-2.7l26.52-7.2,2.49,4.69ZM271.6,342.26c-3.08-1.36-5.9.03-6.45,3.33l1,3.08c3.47,1.06,5.93,3.33,8.73-.25l-3.01-1,3.02-1.01c.7-3.67-1.19-1.9-2.16-2.59-.8-.56-1.03-1.53-1.13-1.57ZM273.85,405.98l-3.39-.98-1.74,2.76-1.83-.84c-.91,5.28,2.09,4.62,5.98,6.01l.98-6.94ZM270.58,458.32c-3.89-3.31-4.94,2.64-2.75,4.15,1.26.87,4.65.84,5.62-.52l-.57-4.02-1.98,1.98c.02-.48,0-1.33-.32-1.6Z"/>
    <path class="cls-1" d="M42.26,346.97l-3.37-1.11-.61-5.94c-5.74-.67-16.03,19.55-22.42,6.49l1.95-.91c-1.35-2.95-.08-3.36-3.42-3.5l-1.5-3.58c1.51-2.44,2.8-.7,4.97-.51-1.64-2.81-.71-3.68,1-5.98l-2-1,2.98-.07-.18-2.78-3.88-1.76,3.06-10.81-2-1.09c5.03-3.83,2.16-9.47,2.53-14.03.19-2.34.91-10.97,3.46-10.5l-2.99-2.96,3-1.53-1.99-.48c.71-2.06-.09-4.36.15-6.37.87-7.29,2.34-3.11,2.83-3.63,1.88-2.01-2.09-1.91-2-2.51l2-.5v-1.98c-1.44.12-2.02.03-2.11-1.47-.36-5.83,2.02-15.21,2.64-21.03.94-8.89,1.16-24.9,5.87-33.21.94-1.65,6.11-6.78,6.42-7.54,2.37-5.92,5.5-12.84,10.33-19.15,1.1-1.44,6.1-4.22,4.86-5.6l-1.99-.99c6.45-2.53,9.67-12.27,15.51-15,2.45-1.15-.15,3.67,2.97,3l-.48-3.01h3.95s1.05,6,1.05,6l2.98-2c.78,2.11-2.01,3.87-1.8,5.29.85,5.66,4.66,14.89,6,21.12.75,3.46-1.89,5.28,2.81,4.6,1.25-6.39.08-13.06,1.06-19.45.32-2.08,1.58-8.15,3.94-7.57l-2.02-1.5c3.65-4.77-1.19-10.64,4.99-13.11l.05-4.37h-3.02s1.02-3,1.02-3l-3.01-.5c5.12-1.5,4.35-5.65,7.99-9.01l-1.99-.99c3.69-.89,4.01-5.92,5.31-7.2,1-.99,7.19-5.42,8.69-6.31,1.01,1.98-1.76,4.95-1.75,5.53.01.88,3.92,3,2.74,5.47-1.64.43-.45-1.74-1.64-2.01-1.29-.3-2.96.15-4.35.02v2.99c3.56.42,7.15-.94,8.5,3.02.93-1.92,2.05-3.21,4.5-3l-2.99,2.98c8.8,3.17,4.71-8.76-2-2.99l-1.01-3.51,3.87-.57,2.1-5.87-7.96-2.05c.95-.57.74-2.94,3.99-1,.89-2.91-2.4-1.74-2.99-3.99l4.99,1,.18-2.84,2.68-.25.15-4.91c2.21-1.5,3.24,4.9,4.99,2.99,1.4-1.52-.48-2.28-1.35-3-2.12-1.75,3.47-1.41,4.11-1.65,5.16-1.9,10.51-5,15.76-6.92l2.27.87c-.47,2.76,2.61,3.02,3.07,4.32.15.41.21,8.32.1,8.75-1.09,3.99-.47,4.13-.91,9.17-.64,7.37-2.93,16.67-2.08,23.82.07.61,3.29.83,2.03,3.63l-2.87.57-2.2,32.83,2.08,1.59-2.05.57c2.62,5.22-1.09,10.88,3.11,14.93-4.28,4.43-.91,5.67-2.06,10.53-1.71-1.26-4.96.19-6,2.48,3.44,1.47,5.59-3.34,8,1.02l-1.98.47,1,5-3,1c.66-.04,1.74.13,2.06.71.35.62,1.42,10.42,1.54,12,.88,11.8.94,24.05,2.31,35.89l-1.91,2.42,3.97.5c-4.46,5.86-4.3-.47-5.47-.48-1.63.57-4.3,3.4-5.3,3.9-5.28,2.64-21.77,9.68-27.01,10.86-2.97.67-5.31-.95-8.2-.78l4.99-53.99c-1.83-.31-.55,1.8-1.18,2.75-.92,1.39-5.97,2.07-5.8-1.23,2.85-4.09,4.56-3.57,8.99-2.54-3.57-3.26-1.08-6.17-1.38-9.32-.12-1.22-1.7-18-4.62-14.66.15,1.48.85,2.62.74,4.2-.39,5.3-3.49,10.81-3.77,16.29-.15,2.99,1.36.71,2.54.52l.48,1.97c-.92.04-2.19.04-2.93.53-5.26,3.52-7,25.39-9.14,31.87l2.06.62.02,1.98c-5.88.91-11.51,12.7-17.51,5.02l-.99,1.99c-2.31-1.77-.98-4.72-2.02-6.98-.48-1.05-2.24-1.81-2.9-3.1-2.78-5.38-6.38-16.62-3.58-21.89-3.83.36-1.57-4.59-4.99-4.02-.6,4.17-1.7,8.27-1.93,12.49-.32,5.74,2.4,13.7,1.74,19.04-.05.41-5.31,2.95,1.18,5.95-.33,1.69-2.92,2.7-3.01,3.22-.97,5.33.63,20.2.81,26.68.07,2.57-1.02,9.54-.66,11.12.17.77,2.84-.14,1.88,2.48h-3.01s1.02,2.99,1.02,2.99c-2.5-.9-14.11,9.02-13.01,10l2.99-.99c.49,3.87-1.95,4.41-4.99,5.49l1.38,4.55ZM137.88,159.94c-2.18-2.38-9.23.86-6.99,3.97,2.18,3.05,9.32-1.44,6.99-3.97ZM70.88,191.93c-2.6-.31-1.59.02-2.03,1.44-.81,2.64-1.08,5.78-.96,8.55,9.92,1.62,5.53-3.68,5.99-9.99l-2.01,1.99-.99-1.99ZM53.89,385.92l-1-5.99c.11,1.8-.83,7.34,1.45,7.73l4.37-.92,1.17-6.82-3.88.11-2.1,5.88ZM86.88,504.94c-1.14-.99-8.63,2.73-9,4.98,2.67-.26,3.03-2.46,6-.98v2.99s-2.99-.51-2.99-.51l5.45,2.51c3.53-2.68-2.72-5.13.54-8.98Z"/>
    <path class="cls-1" d="M469.88,40.92c1.71.78,3.35-2.44,3.98-1.98.14.1-.22,1.55.47,1.79.42.15,2.43-.26,3.93.22,2.28.73,13.92,3.64,14.46,4.21,1.13,1.19.62,4.94,4.61,4.85l1.06-2.14c3.04,2.32,11.42,2.81,10.49,7.06l8-1.99c-2.95,5.93,7.73,8,11.54,11,5.71,4.49,16.03,19.7,20.51,22.51,1.11.69,3.11-1,3.94,1.03-2.23,6.4,4.41,13.34,6.53,19.44,1.11,3.21,2.19,8.5,3.02,12.01,1.26,5.34-.39,8.03-.04,13.54.89,13.84,2.9,24.41,1.5,38-.41,3.93-1.17,8.04-1.82,11.94-.28,1.69,1.14,6.59-.18,9.01l-1.99-.5c-.64,1.74,1.48,2.27,1.59,3.51.03.38-1.77,6.03-1.99,7.37-1.45,8.88-4.66,24.06-12.82,29.39-2.99,1.96-17.19,7.04-20.33,6.86-1.9-.11-1.34-2.03-1.9-1.99-.73.05-1.82,1.02-2.96.83-2.74-.46-4.64-2.19-7.6-.97l.99-4.99c-1.55,1.25-3.48-.09-4.37.06-.81.14-.56,1.67-1.87,2.24-3.92,1.7-19.23-2.36-24.22-3.61-2.97-.74-5.71-.4-6.88-.75-.76-.22-1.21-3.95-5.64-.93l-.02-3.01-1.52,2.05c-1.34-1.52-5.16-.98-5.34-1.2-.72-.86-2.04-6.07-4.12-7.39l-3,1.53,2.98-4.51-2-2.98,2,.5c1.2-2.73-3.79-1.64-1.95-3.98.08-.1,1.72.28,1.98-.68.53-1.96-.36-5.15-.02-7.36l-2.01-.49,2.08-1.12-1.12-4.83,1.94-.99c-2.43-2.79,2.51-8.01-1.88-7.58l2.05-1.62c-1.85-3.19.73-8.26.55-9.88-.16-1.52-3.92-2.81.39-3.98-3.71-1.92,1.01-5.91-2.98-5.53v-1.98s1.98-.01,1.98-.01l-2-2.97c2.76.58,4.12-5.59,4.01-7.45-.03-.61-1.81-.48-2-1.25-.28-1.13.2-8.24.5-9.83.4-2.15,3.28-1.91-.52-2.98l3.01-4.02c-3.51-1.07-1.41-7.75-1.41-11.48,0-1.3-1.1-2.42-1.07-4.09.07-3.46,3.09-7.72-.52-8.41l2-4.88-2.01-1.12,3.01-.51-2-1.5,2-2.48c-3.17-.16-6.94-1.07-7.98-4.53-.93-3.1,3.7.38,4.97-.93,3.06-1.48.54-7.78,1.01-10.55l-3.99-.5,4-1.01c-1-6.43-2.38-13.01-.99-19.48l-3.01-1c1.62-.27,2.86,1.11,2.74-1.3-.21-4.23-.61-16.16,2.55-18.41,1.64-1.17,5.02-.15,4.72-3.29l.99,1.99ZM506.72,90.75l2.15-6.82c-3.8.52-10.22,3.92-2.98,5.5l-3.01,1.49,3.83-.17ZM549.83,90.97l-3.94-.06-1,7.01c4.89-.4,6.85-1.8,4.94-6.95ZM517.88,105.95l-4.49-2.06c-.93,3.76-2.93.79-5.24,1.75-2.18.9-4.43,4.95-3.26,7.28l-3.98-1.49.99-2.5,1.99-.99c-4.86-.9-6.64.64-8.98,4.51l-3-1.51,3,3.5-3,1.49c6.02,2.99,3.03-1.66,4.54-2.06l7.45.07-.99,4,2-.51c.11,2.34.42,13.08,1.47,14.5,2.01,2.68,2.3-3.07,3.5-1.99l2.01,4.98-3.99-.99,3,3.98h-4.99s0,9.01,0,9.01l1.8-.48-.3-1.52,5.49,2c-4.3-1.97-2.35.1-3.95,1.54-.95.84-2.85,1.33-3.06,2.17-1,3.99.06,14.03.08,18.67l-2.05,1.09c1.28,2.42,3.77,8.16,6.52,8.6,6.11.99,6.88-4.4,9.15-7.83,4.66-7.04,5.12-9.18,5.25-16.68.02-1.36.81-2.68,1.13-3.99l-2.05-2.04c2.41-1.95,3.17-2.81,1.93-5.88l2.06-.65-4.84-2.15-1.15-5.83,4,1.98c.78-.92-1.93-22.45-6.92-22.14l.93-2.85-4.01-1.02,2-3.97ZM546.27,110.49c-.46-.39-.31-1.57-.84-1.51-2.46,1.47-6.3,1.28-6.57,4.94l-2.97-2c-1.13,2.92,1.73,2.8,1.96,3.74.27,1.08-.21,2.73.03,3.27.12.28,6.03-.33,5.97-1.52l-3.98-4.49,3.57.93.92-1.94,1.49,4.99,3-4.5c-.79-.76-1.75-1.22-2.59-1.92ZM503.88,136.94c-3.09-.56-6.29,1.3-7.02,4.48-.63,2.78,1.59.44,1.86.66l3.66,4.85-1.5-8,1.94.97,1.05-2.96Z"/>
    <path class="cls-1" d="M592.96,287.26c.33.21.89,2.28,3.17,3.43,1.44.73,3.32.35,3.47.49.3.26.25,1.67.93,2.28,1.14,1.03,2.69,1.29,3.64,2.63,1.77,2.5,2.38,8.53.32,11.21l3.89,1.1-3.11.56,1.62,2.76-2.15.82-.47,3.34,2.11-.72c-.85,3.87-2.81,5.59.75,8.71l-2.12.67,1.49,3.77-3.05.06c3.48,2.72,1.27,5.94,1.77,9.24.38,2.52,1.53,4.76,1.91,7.49.42,2.98-1.56,9,2.51,9.96l-.28,1.96-2.11.69,6.26,5.48-2.04.21c-.9,3.41,3.04.96.25,5.08l-3.01-3.47-.84,2.42-3.07.06-.55-3.12c.5,3.52-2.66,3.56-2.95,6.57l6.72,2.08-2.4,2.67,7.07.02c.84-3.28-.55-1.64-2.5-1.55-4.91.23,4.02-5.19,4.28-5.54.99-1.32-.13-4.26,2.77-3.38l-.77-1.63c-2.39.61-2.01-.81-2.61-2.87,5.07.55,4.13-2.31,5.92-5.47.34-.61,4.98-7.01,5.12-7.6.38-1.58-.71-3.5-.35-4.94.06-.26,3.28-1.34,3.58-3.73l-1.88-.73,2.12-.7-1.55-3.24,2.84.29c2.62-7.45,4.69-14.98,12.4-18.13,1.95,3.16,10.09,3.59,7.42,7.99l19.27,13.44c1.26,1.13.03,3.81.52,4.5.71,1.01,4.31-.71,1.5,2.35,4.08,1.74,3.36-3.58,6.67-1.9,6.04,3.07,2.02,12.35,3.06,17.34-5.45.15-16.18,22.21-17.53,22.75l-2.15-1.18-1.67,1.23c3.65,3.78-5.53,8.69-3.94,13.06l-4.95-.71,1.77,1.75c-1.45,1.91-1.68,2.75-4.32,1.92l1.52,2.5c-1.85,3.14-3.59,7.3-5.5,10.26-.66,1.02-6.77,4.91-1.75,5.6l-.14.97c-1.08-.13-2.2-.67-3.16.17-3.45,3.02-7.59,15.59-11.47,19.43,2.92,4.26-.86,3.79-2.65,6.16-.34.44-3.83,10.39-.97,9.54-3.75,5.65-.34,12.82-3.78,18.5l3.4,4.65-2.2.79c-.55,9.13.51,19.02-5.02,26.88-3.66-2.31-3.02.58-4.31,1.27-.57.3-11.76-.05-12.8-.15-2.5-.24-5.13-2.43-9.24-1.86-1.15.16-.42,2.59-2.43,1.66l.78-1.9-26.43-5.89-1.56,3.81c.62-5.09-7.58-3.21-9.71-5.49-1.58-1.69-.88-4.64-3.76-6.11-.09-.86,4.74-6.09,5.55-7.97,3.47-8.1,7.4-15.91,10.96-24.25.63-1.47,1.53-7.09,2.06-8.02.65-1.13,4.19-1.96,2.48-3.63l-4.49,3.13-3.99-3.89c.06-3.1,2.57-.34,3.61-.03l.71-1.84,2.65,2.39,2.48-3.17-2.81-1.43c-.29-2.39,2.47-.94,3.08-2.52.23-.6,2.09-11.94,2.12-12.76.13-3.15-.39-6.19-4.07-6.29l.31-1.95c3.96.43,3.17-5.14-.05-6.59,1.84-2.17,2.9-.38,4.99.23.24-1.05.06-2.32.46-3.28.51-1.23,2.41.34,2.24-1.37l-2.91-.96,1.38-2.3-2.83-1.42c1.3.54,10.19-1.78,8.62-3.8-1.01-.02-3.35,2.57-4.23,1.4-1.72-2.31,5.01-1.68.92-2.92l-3.25,1.55c-1.67-.15.98-11.14-4.14-9.69.07-1.81,1.81.25,2.42-2.1.99-3.8-.21-5.35-.83-8.78l2.88.93c-.7-2.97-3.65-1.85-3.73-2.07-.17-.48,1.53-7.96.45-10.06l-3.88-1.06,4.02.08.17-1.44c-2.33-2.85,1.24-4.97-2.11-6.54l1.4-2.77-1.74-1.29c.47-14.52-1.58-30.68-3.74-45.64-.32-2.22-1.02-4.54-1.76-6.66l2.12-.63c-1.92-4.02-2.78-23.27,1.62-25.06,2.06-.46,4.53-.09,6.54.44,2.32.61,17.71,9.58,20.72,11.47ZM616.78,382.37l-2.41,2.67c-3.35-2.89-9.25-3.51-11.66.32l-1.18-2.19,1.25,5.22-2.81-1.41c-.82,3.41.55,5.05,3,7.01l-3.17,1.04c4.4,1.13,4.23,6.15,10.3,5.56l-.57,3.97,2.97.41-1.55-3.24,4.95.7-.96-7.2,5.72,1.76,1.15-3.78-4.75,1.31,3.45-3.07c-2.16-8.21-5.13.3-6.83-1.47l2.41-2.66c-1.14-1.24-4.41,3.17-5.01-.25-.45-2.55,2.75-.64,4.25-1.37s1.31-1.92,1.48-3.34ZM594.24,430.93c-1.48-1.68-2.63-.99-4.61-.97l4.35,4.68-.18,1.47-2.07.22,1.2,2.17,5.24-4.78c-4.17.08-2.65-1.33-3.93-2.78Z"/>
    <path class="cls-1" d="M222.87,100.92c.63.64,4.99-1.55,4,2-6.95-3.99-4.15,6.98-6.19,9.79-.74,1.02-19.99,6.41-23.7,8.8-1.06.68-6.79,6.81-7.22,7.83-.73,1.73-.22,8.15.14,10.07.63,3.39,4.5,2.96,7.25,2.27,1.7-.43,6.17-3.59,7.72-4.1,2.66-.88,7.06-2.02,9.07.08.56.59,3.42,5.59,3.51,6.21.2,1.27-1.34,2.04-1.28,3.32.33,8.24,3.46,22.2-3.33,28.18-5.22,4.59-15.64,4.72-19.6,8.91-2.82,2.99-7.88,10.4-6.55,14.53l-1.81.62,1.79.62c-1.29,5.41,4.36,10.76,9.58,7.75,1.46-.84,2.45-2.73,3.7-3.35.86-.42,16.72-5.8,17.93-6.06.78-.16,7.64-.19,7.99.02,6.42,3.8,3.23,14.92,3.3,21.3.1,8.34.65,16.71.57,25.08-5.27,2.98-10.48,7.91-16.64,8.96-2.96.51-2.95-3.8-7.22-2.83l4,3.99c-6.87,1.14-13.59,3.96-20.25,6.27-3.7,1.28-7.25,2.45-11.22,3.69-22.21,6.94-35.2,16.64-31.65-17.31l-5.9-3.14,2.04-2.47,1.92.05c-.06,2.04-.05,2.19,2.04,1.93-.2-2.24.84-4.33.99-6.51.9-13.42-.83-26.66-.98-39.99-.05-4.51,4.02-13.49-1.01-16l2.04-1.14c1.25-4.22-1.37-11.54-1.03-14.83.26-2.53,4.29-3.36-.99-4.54l2.02-1.62-.04-6.79,4.01-.58-4-.98.02-5.01c3.46,3.97,8.66-1.83,2.01-.42-6.03-4.93,1.92-11.6-3.02-16.57l2.98-.49c-2.34-3.36.48-7.59-3.98-9.01,3.93-3.17,1.67-5.33,1.94-7.88.07-.7,1.95-.53,2.09-1.28.32-1.67-.94-6.32-.71-9.19.35-4.37,1.97-8.72,2.15-13.18,8.84-4.09,15.68-12.63,23.98-17.02,4.6-2.43,10.85-4.11,15.1-6.88,1.21-.79,2.26-2.62,2.45-4.07l1.48,1.99c.8-2.39,6.26-2.76,6.52-3.02s-1.65-3.11.5-3.97c2.52-1,1.51,5.12,3.09,5.03l3.39-1.05-1.99-4.99c3.49,5.11,15.52-6.53,16.95.53l.03,46.46ZM176.88,73.93c-2.51-1.14-1.66,1.4-2.14,1.75-.26.19-5.56-2.08-2.85,3.24h-6s.96,3.39.96,3.39l-2.84,1.76.89,2.85c2.2-2.48,4.84-2.79,3-6l2.97,1.99c-.58-3.56,4.19-.95,5.6-2.96l.41-6.02ZM187.38,101.94l-3.34,4.49c4.59,6.07,8.73-.54,3.34-4.49ZM173.87,156.94c-5.11-.55.71,5.48,1.66,5.8,1.37.46,2.93.15,4.34.17l-.98-3.55-3.02.55,1.01-1.99-3.01-.99ZM165.25,214.6c-.69-1.04-.75-3.29-1.88-3.67-3.24-1.07-4.93,3.76-2.5,5.56l6,.43c1.02-2.41-1.19-1.67-1.62-2.33ZM202.88,247.94l-5.58-.9c-.17,2.75-4.82-.29-1.92,3.93.39.57,1.74.82,2.49.98l-1.99,3.97c4.4.44,5.76-4.7,7-7.98Z"/>
    <path class="cls-1" d="M334.88,36.69l4.81.21,1.23,8.27-3.04,2.52,4.02.52c-.95,4.17-1.67,8.45-2.36,12.66-1.71,10.41,1.2,25.81-5.3,36.19-.5.79-.35,1.76-.36,2.63-1.34-.62-1.86-1.57-3.54-1.95-3.61-.8-17.02-2.87-19.79-1.89-.59.21-4.18,4.3-4.64,4.83l1.96.63c-.96,8.35.37,16.86-.03,24.87.07,3.52.47,7.84.46,11.02-.01,4.43,1.24,10.05-1.39,13.49h3.01s-1.98,1.02-1.98,1.02c-3.18,6.93,2.07,1.95,1.98,3.5.39,2.14-2.81,1.88-3.07,3.2-.3,1.54,1.08,4.27.07,6.29l2.99-.99c-1.91,7.79-.96,16.11.02,24l3.47-1.02c2.74,4.29-2.43,4.11-3.21,6.66-.36,1.18.85,12.76.73,15.84-.1,2.4-.27,7.73-.55,9.67-.99,6.92-2.38,10.76-8.96,13.84l-.99-2.99-1.59,3.92-2.41.08.5-2-2.51,2.02-3.49-2.03,1.98,3.99c-2.95,1.07-7.26.15-9.8.69-2.31.49-3.9,2.31-5.72,2.8-.96.26-11.86,1.24-12.47,1.1-4.06-.95-8.52-9.1-7.84-12.08.12-.53,1.41-.39,1.58-.99.4-1.49,1.64-6.59,1-7.31-.28-.31-3.19-.08-1.69-2.15.16-.23,2.68.94,2.04-3.53-.36-2.49-2.52-1.53-3.09-3.5l3.07-.56c-.04-3.64-.19-7.3-.07-10.94.12-3.64,3.12-6.05-2-8,5.03-4.22,2.62-11.6,3.31-17.73.28-2.45.2-4.55,2.7-5.28l-3.02-.51c2.54-3.25,1.27-5-.07-8.45l2.08-1.03c-1.49-.77-1.92-5.51-1.85-7.06.03-.62,1.64-.41,1.67-.92.27-4.49-1.44-9.39.82-14.06l-5.62-2.97c1.03-2.04,4.25-.79,5.03-2.15,1.98-3.43-1.09-11.75.94-16.33l-2.97-.5c2-1.24,1.99-7.98,2.26-8.33.41-.53,5.52-2.56.6-2.77-1.56-.07-5.85.16-7.37.49-5.12,1.11-10.48,6.1-16.21,5.84-.65-.03-5.84-2.71-6.04-2.98-3.78-5.18-1.85-27.27-1.77-34.28.08-6.91-1.96-12.08.8-19.7,2.29-6.34,6.95-3.65,8.75-7.77,4.42,4.77,9.39-1.34,12.96,1.98-.4-3.39,3.69-1.52,6.29-2.22,4.52-1.21,7.81-1.8,12.07-2.78.79-.18.69-2.04,1.11-1.98.9.11,2.35,1.68,4.03,1.55,1.56-.12,5.44-3.09,7.92-2.64l1.59,2.07c-.41-2.49,1.33-2.23,3.5-1.99l-.5-1.99c2.6-1.08,1.79,2.03,2.56,2.05,3.12.1,6.67-3.77,10.88,0l2.55-3.07-2.48,6.02c3.49-.51,4.01-1.56,3.49-5.01l2.99.99.5-3.97,3.49,3.97c-.08-2.8-.64-3.9,2.56-2.09l.46-1.89,1,1.99c3.68-2.73,4.7-1.34,7.98,1l-.99-2.99,8.42-.98c2.03,1.22,1.32,2.19.58,3.97ZM284.74,165.84l-5.21-1.06c-4.66,1.35,1.53,8.69,5.35,6.92l-.14-5.86ZM278.88,198.7l-7.91,2.13.93,3.86c2.46.92,1.82-1.53,2.19-1.71.42-.21,1.32.62,1.57.43.41-.33,3.91-4.13,3.23-4.71Z"/>
    <path class="cls-1" d="M631.66,135.29c.4.62,3.64,1.15,5.24,2.43,9.32,7.5,20,26.53,24.24,37.82.67,1.78,2.5,8.54,2.3,9.97-.11.82-3.1-.4-2.31,2.33l3.98.42c-2.72,5.22.66,3.5,1.24,5.8.95,3.77.7,12.18,1.57,16.54l2.88.38-4.75,7.06,2.91.79-.37,2.89c-.61.75-5.65-.92-4.54,5.04.2,1.08,5.52.54,3.45,6.37l-2.18,1.4,4.97.54c-1.19,3.29-6.96,3.35-.51,5.51-2.04,6.27.06,18.28-2.7,23.67-.62,1.2-1.77,1.42-2.99,1.36,2.2,2.83.02,6.15.98,9.55l-1.58,1.07c-4.05-1.88-4.38.6-7.69,1.57l6.86,1.7,1.19-1.88c-4.37,11.11-5.2,19.4-18.91,19.89-9.16.32-12.71-2.02-20.52-4.56-3.03-.99-12.47-2.97-14.86-4.1-.21-.1-.57-2.67-2.87-3.58-1.36-.54-2.85.27-2.94.15-.15-.22.27-3.29-1.79-4.79-7.94-5.78-17.73-15.12-22.36-24.56-1.71-3.47.53-7.74-4.39-5.77,4.49-3.7-3.27-7.65.34-13.02l-2.18,1.77c.72-6.29-.98-12.46-1.06-18.72-.06-4.54,2.93-8.86-1.86-11.24,3.96-1.65,4.17-9.42,1.31-12.92l1.96.69.7-13.54,1.85-1.27,1.79,2.19c1.15-2.23-1.95-4-2.12-4.5-1.7-5.07,1.18-8.68,1.99-13.15.54-2.96.4-8.72,1.15-11.71.17-.69,1.57-.57,1.69-.77.83-1.41.04-3.59,3.79-3.38l-2.2-7.76,3.09-.68-1.72-2.09c3.79-3.62-1.2-6-.23-8.14,1.43-3.15,3.47,1.57,4.8,2,.28-2.79,1.49-4.49-1.41-5.66.85-1.54,7.61-8.4,8.97-9.08,1.2-.59,2.91.73,3.46.64.48-.08.41-1.5,2.86-1.86,1.08-.16,8.19.21,9.1.52,1.08.37,18.15,12.04,18.95,12.87,1.54,1.6.89,2.98,1.45,3.84ZM625.37,174.09c-1.85-1.96-3.58,4.84-5.88,4.48l-1.97,3.28c5.25,2.54-1.15,2.33-2.33,4.96-.62,10.13-2.45,21.51-2.41,31.61,0,1.96,1.41,15.86,1.85,17.55,1.17,4.51,3.97,7.06,8.55,7.26.16,2.13-3.96-.66-3.22,2.15.99,3.74,5.4.62,5.99,5.14l3.95-4.1-1.73-2.68c5.52,2.82,2.86-1.1,3.33-3.15.58-2.58,1.94-4.96,1.87-7.71l-3.82-2.59c.36-3.53,3.93-.83,4.14-1.06,1.06-1.24-.83-5.76-.72-7.58.71-11.68.89-14.64-1.18-26.7-.4-2.36,2.21-6.26-2.81-7.45l1.97-.9.15-1.2c-.12-1.44-3.05-9.2-4.05-9.94-.43-.32-1.17.37-1.59.32-2.93-.31.43-1.14-.11-1.7ZM585.71,183.58c1.99-2.24,4.67-4.27,1.73-7.41.83,4.47-3.28,2.57-4.21,7.02l-2.97-.73,3.22,3.19c.53-.88,1.64-1.4,2.23-2.07Z"/>
    <path class="cls-1" d="M333.74,147.01c1.31.93,5.77,9.75,5.05,10.81-.64.94-9.9,5.47-10.4,8.12l-2.52-1.02,1.08-3.4-2.11-1.21,5.03-10.38.99,1.99,2.01-2.01-2.98-1.97,3.85-.93Z"/>
    <path class="cls-1" d="M236.27,444.57c.37.4,1.06.44,1.6.37l-1.99,2.97c2.34,1.19,3.08-4.08,3.99-2.98,1.47,1.78.79,5.89,0,7.99-6.94-.95-7.61-4.89-5.98-11,1.28.18,1.54,1.73,2.38,2.64Z"/>
    <path class="cls-1" d="M553.71,246.1l.06,5.77-2.89.07,1.01,2.99-2.52,1.01-.98-2.02-1,3.01c-3.96-3.4.13-3.88.47-4.77.75-1.98-.37-4.67,2.02-5.23l1,2.99.02-4.99,2.82,1.17Z"/>
    <path class="cls-1" d="M242.87,180.93c.26,4.45-4.44,11.5-9,7.47.94-2.51,1.97-5.16,5.01-4.48l-1-2.99h4.99Z"/>
    <path class="cls-1" d="M683.82,252.97c.15.11.09,2.08,1.08,2.47-1.81.74-2.28.58-1,2.47l-2.89.1-.62,2.89c-1.38-3.33-2.44-2.04-4.5-3.49l1.86-.65-.86-2.83,3.99,2v-3.01c.86.13,2.53-.25,2.94.05Z"/>
    <path class="cls-1" d="M110.65,306.19c.59.36-.53,3,3.22.74.75,3.27-3.18.86-.98,3.99l-9-1.51c-.4-2.26,5.37-4.06,6.77-3.22Z"/>
    <path class="cls-1" d="M337.88,180.93v7.99s-5.52-1.97-5.52-1.97c-1.36-1.36-.16-1.61.61-2.44.46-.5,4.2-4.51,4.91-3.58Z"/>
    <path class="cls-1" d="M627.26,110.52c1,.89,2.94,1.29,2.62,2.89l-4.43,2.5-2.33-4.53,3.28-2.45c.7-.12.32,1.11.86,1.59Z"/>
    <path class="cls-1" d="M684.88,570.93c5.6-.82,4.94,5.97,1.48,7.99-5.28-1.23.31-4.83-1.48-7.99Z"/>
    <path class="cls-1" d="M559.88,256.92v3s3.51-2,3.51-2c1.18,6.01-7.25,6.77-7.5.51l3.99-1.51Z"/>
    <path class="cls-1" d="M231.87,183.93c.66,5.92-7.41,5.38-8.99.49l8.99-.49Z"/>
    <path class="cls-1" d="M22.87,146.95c-.13,4.18,7.07-1.81,6,4.99l-1.84-.86-2.63,2.85.48-2.49-4.02-2,2.01-2.48Z"/>
    <path class="cls-1" d="M668.74,547.1c.72.29,3.14,4.57,2.13,5.82l-5.99-1.01c-.64-1.82,1.56-5.73,3.86-4.82Z"/>
    <path class="cls-1" d="M538.87,489.93c-1.99-1.1-3.2.16-4.98,1l1-8c2.81,1.41,4.56,3.75,3.98,7Z"/>
    <path class="cls-1" d="M5.88,352.94c-3.21,3.58-5.77,7.6-3.02,12.51l-1.97.48c-1.63-5.11-1.58-11.67,4.99-12.99Z"/>
    <path class="cls-1" d="M617.93,203.89h2.9c.92-7.52,4.78-2.79,5.04,2.02-5.77-.14-8.74.07-10.99-5.5,1.9-1.78,3.12,1.53,3.05,3.47Z"/>
    <path class="cls-1" d="M52.51,340.83c5.46,2.28,2.32-.12,3.58-1.63,1.04-1.25,8.74-1.53,8.81-6.26h1.98s-.5,2.98-.5,2.98c2.07-6.04,5.92-5.07,11.03-5.89,1.67-.27,2.9-1.45,4.54-1.59,2.06-.18,5.47,1.12,7.94.49l-1.01,1.97c1.55,2.01,12.14-1.87,10.51,2.02l-7.49,4.5,3.97,3.5-.99-2.99c3.77,2.03,4.76-1.54,5.5-1.79,4.99-1.71,7.24,5.15,9.15,8.58.88,1.58,4.24,6.41,4.34,8.77.07,1.55-1.11,2.88-.99,4.45l1.98-1.02-.99,6,4,.02-3.01,2.49c3.17,1.05,3.5,5.98,3.84,9.14,1.03,9.54-1.21,20.76-3.09,30.1-3.17.92-5.46,4.35-7.82,5.69-2.56,1.45-8.18,4.22-9.91,1.57-1.05,5.42-10.03,2.29-14.01,5.01.65-2.69-1.52-4.45-1.94-6.58-.66-3.39,1.79-11.23-4.06-10.44-.35-2.13,3.96.29,2.98-2.47-.18-.5-3.6-6.66-3.95-7.05-1.7-1.9-4.87-3-7.33-2.46-.62.14-.56,1.39-1.5,1.89-.88.47-2.49-.07-3.73,1.06-1.11,1.02-7.88,22.55-3.48,25.02-4.66,1.21-1.33,10.15-1.35,13.67-.03,5.82-1.64,12.55-.7,18.8l3.06.56c.23,1.69-2.81,1.22-2.93,2.46-.04.46,1.4,2.26,1.51,3.45s-1.33,2.08-1.32,3.37c.02,2.78,2.43,8.02,2.8,11.16l-2.04.57c-.22,1.39,1.61,1.03,2.86,2.6,1.97,2.47,3.81,8.13,6.08,10.97,8.19.5,9.5-8.34,12.08-14.1l-2.01-2.46c3.48.54,1.66-4.2,2.35-5.61.57-1.16,2.22-1.14,2.5-1.59.3-.48-1.16-4.06.12-6.1.17-.28,5.19-3.49,5.52-3.49.6,0,1.46,1.72,3,1.81.64.04.33-1.86,1.16-2.05,2.44-.55,4.96,1.45,5.78-1.88,4.8,2.35,11.77-1.43,14.8,4.16,2.74,5.06,1.32,12.56,1.9,18.1l4.87,1.64-1.02,4.99-4.98-1.99c1.79,3.82,1.94,6.83.99,11l-2.51-.99-.49,1.98h4.01c-2.66,3.46-.88,6.14-1.03,9.48-.44,10-1.51,17.42-6.76,26.24-6.6,11.09-9.81,10.69-19.99,14.98-1.34.57-1.2,2.33-1.67,2.28-.96-.11-3.23-1.87-4.1-1.95-.28-.03-.89,3.48-4.45,1.98l1,2.98c-2.31.28-2.9-1.01-2.15-2.87-.79-.85-6.23-.51-6.74.02-.67.71.82,3.19-1.1,2.85.64-5.17-8.84-4.92-12.97-6.74-2.03-.9-11.28-6.29-13.21-7.57-3.52-2.33-6.32-5.61-9.82-7.69l1.99-1.48c-1.24-1.93-2.86-.02-4.45-1.47-2.27-2.07-5.52-12.21-7.5-14.39-.95-1.05-2.11-.03-3.4-1.88-.83-1.2-3.46-10.1-2.58-11.16-3.13-1.82-2.29-8.38-3.78-12.36-1.09-2.93-11.25-4.51-3.8-9.33,1.28-.83,2.43.19,2.49.08.9-1.55-.65-6.16-3-6.51l2-.48c-.39-10.9-.74-21.62,1-32.42l-1.99-1.57c4.13.43.66-3.25.93-5.41.08-.66,1.72-.48,1.86-1.08,1.37-5.72,2.45-18.4,3.5-24.8.75-4.61.44-9.13,5.7-10.73v-.97c-5.09-.43,1.32-5.53,1.99-6.74,1.22-2.18,2.54-5.77,3.02-8.28l3.98,1-2.99-2.49c5.33-6.82,10.35-13.73,17.07-19.24l6.56-8.36Z"/>
  </g>
</svg>